<?xml version="1.0" encoding="utf-8"?>
<!-- Svg Vector Icons : http://www.onlinewebfonts.com/icon -->
<!DOCTYPE svg PUBLIC "-//W3C//DTD SVG 1.1//EN" "http://www.w3.org/Graphics/SVG/1.1/DTD/svg11.dtd">
<svg version="1.1" xmlns="http://www.w3.org/2000/svg" xmlns:xlink="http://www.w3.org/1999/xlink" x="0px" y="0px" viewBox="0 0 1000 1000" enable-background="new 0 0 1000 1000" xml:space="preserve">
<metadata> Svg Vector Icons : http://www.onlinewebfonts.com/icon </metadata>
<g><g transform="translate(0.000000,511.000000) scale(0.100000,-0.100000)"><path d="M874,4962c-123.8-58.1-224.8-161.6-275.3-285.4c-35.4-83.3-40.4-578.4-40.4-4546.4c0-3028.4,7.6-4483.3,27.8-4548.9c32.8-123.8,159.1-265.2,287.9-323.3c96-45.5,242.5-48,2735.4-48c2311.1,0,2644.5,5.1,2727.8,37.9c63.1,27.8,333.4,277.8,808.2,752.7l712.3,712.3v2247.9v2245.4l-1028-1025.5C5923-721,5786.6-849.8,5690.7-875c-128.8-32.8-252.6-12.6-356.1,58.1C5208.2-726,4273.7,463.6,4243.4,572.2c-48,176.8,35.4,373.8,199.5,477.4c118.7,73.2,310.7,75.8,426.9,7.6c45.5-27.8,224.8-227.3,401.6-447.1C5445.7,390.4,5597.2,211,5604.8,211c10.1,0,520.3,502.6,1136.6,1118.9l1116.4,1116.4v1038.1c0,1184.6-5,1230-174.3,1381.6c-55.5,50.5-143.9,101-197,116.2c-65.7,20.2-1118.9,27.8-3303.7,27.8C1114,5010,970,5007.5,874,4962z M2919.9,3878.5c138.9-68.2,298-247.5,353.6-391.5c55.6-146.5,42.9-416.8-25.3-560.7c-63.1-126.3-202.1-265.2-328.3-328.3c-159.1-75.8-426.9-80.8-591-12.6c-166.7,73.3-338.5,260.2-396.6,434.4c-113.7,346,85.9,762.8,426.9,889.1C2505.7,3964.3,2786,3949.2,2919.9,3878.5z M6948.5,2964.1v-202.1H5685.6H4422.7v202.1v202.1h1262.9h1262.9V2964.1z M2387,2385.7c159.1-128.8,303.1-123.8,479.9,10.1c45.5,35.4,101,63.1,121.2,63.1c90.9,0,401.6-184.4,497.6-295.5c169.2-189.4,209.6-338.4,214.7-765.3l2.5-366.2l-1091.1-7.6l-1093.7-5.1v353.6c0,510.2,73.2,689.5,366.2,911.8c106.1,80.8,298,169.2,381.4,171.7C2280.9,2459,2336.4,2426.1,2387,2385.7z M6948.5-1607.5v-202.1H4208H1467.6v202.1v202.1H4208h2740.5V-1607.5z M6948.5-2971.4v-202.1H4208H1467.6v202.1v202.1H4208h2740.5V-2971.4z"/><path d="M9145.9,3401.1c-20.2-7.6-828.4-803.2-1795.8-1768l-1758-1755.4L5231,327.2c-197,250-386.4,477.4-421.8,510.2C4672.8,963.7,4448,867.7,4448,680.8c0-78.3,60.6-164.2,457.2-664.3c250-318.2,484.9-601.1,520.3-633.9c40.4-35.4,93.4-55.6,154.1-55.6c90.9,0,161.7,68.2,1967.6,1876.6c1174.5,1174.5,1879.2,1896.9,1889.3,1937.3C9474.3,3305.1,9302.5,3456.6,9145.9,3401.1z"/></g></g>
</svg>